<?xml version="1.0" encoding="UTF-8" standalone="no"?>
<svg
   xmlns:dc="http://purl.org/dc/elements/1.1/"
   xmlns:cc="http://creativecommons.org/ns#"
   xmlns:rdf="http://www.w3.org/1999/02/22-rdf-syntax-ns#"
   xmlns:svg="http://www.w3.org/2000/svg"
   xmlns="http://www.w3.org/2000/svg"
   xmlns:sodipodi="http://sodipodi.sourceforge.net/DTD/sodipodi-0.dtd"
   xmlns:inkscape="http://www.inkscape.org/namespaces/inkscape"
   version="1.1"
   width="128.53574"
   height="64.15802"
   id="svg12"
   sodipodi:docname="logo-white.svg"
   inkscape:version="0.92.1 r15371">
  <metadata
     id="metadata18">
    <rdf:RDF>
      <cc:Work
         rdf:about="">
        <dc:format>image/svg+xml</dc:format>
        <dc:type
           rdf:resource="http://purl.org/dc/dcmitype/StillImage" />
        <dc:title />
      </cc:Work>
    </rdf:RDF>
  </metadata>
  <defs
     id="defs16" />
  <sodipodi:namedview
     pagecolor="#ffffff"
     bordercolor="#666666"
     borderopacity="1"
     objecttolerance="10"
     gridtolerance="10"
     guidetolerance="10"
     inkscape:pageopacity="0"
     inkscape:pageshadow="2"
     inkscape:window-width="1181"
     inkscape:window-height="715"
     id="namedview14"
     showgrid="false"
     inkscape:zoom="5.52"
     inkscape:cx="25.239645"
     inkscape:cy="22.280658"
     inkscape:window-x="0"
     inkscape:window-y="0"
     inkscape:window-maximized="0"
     inkscape:current-layer="svg12"
     fit-margin-top="0"
     fit-margin-left="0"
     fit-margin-right="0"
     fit-margin-bottom="0" />
  <path
     d="m 68.756973,14.196423 c 0.2401,-0.08 0.3468,0 0.5869,0.1067 0.827,0.4268 1.4406,2.1075 1.6273,2.5611 0.2401,0.5869 0.5069,1.654 0.5602,1.7073 0.1068,0.2401 0.3202,-0.2401 0.5603,-0.2401 0.2934,0 0.4001,0.0267 0.5602,0.3735 0.5869,1.2806 0.9604,2.9613 1.1738,4.7487 0.1067,0.9604 0.4002,2.0008 0.4002,3.3347 -0.0267,0.5869 -0.1067,5.9491 -0.1601,6.6161 -0.3468,4.0283 -0.8537,6.7494 -3.8949,8.4568 -2.9346,1.654 -5.3356,-0.6136 -6.7495,-2.8812 -0.747,-1.2005 -1.1471,-4.5619 -1.2805,-6.0025 -0.0267,-0.3468 0,-2.0809 0.08,-2.8812 l 0.4802,-4.882 c 0.1601,-1.6807 0.5336,-4.1351 1.0404,-5.6824 0.1068,-0.2667 1.1205,-3.0679 1.2539,-3.2546 0.4802,-0.667 1.3339,-2.2676 3.7616,-2.0809 z m 0.5068,1.1738 c 0.8537,1.5206 1.0671,1.8408 1.1205,2.2143 0.3201,0.4802 0.1334,3.8416 -0.5336,4.7486 -0.5602,1.4673 -2.5077,2.2409 -3.2013,3.0946 -0.3201,0.3735 -1.4139,1.3873 -1.654,2.0809 0.0267,0.0267 -0.6936,1.3872 -0.6936,1.7607 -0.1334,-0.08 -0.1334,-1.7874 -0.1334,-1.8941 0.08,-0.1601 0.4535,-5.9225 0.6136,-6.8295 0.1067,-0.5869 0.9604,-5.629 2.8545,-5.4956 0.2134,0 1.5473,-0.0267 1.6273,0.3201 z m -8.1367,0.6936 c 0.2135,0.3202 2.0542,1.2005 1.3072,2.5878 -0.2401,0.4802 -1.4406,8.5102 -1.5473,8.9637 -0.2134,0.7203 -1.2805,4.135 -0.9604,0.6936 0.4002,0.1868 1.0405,-9.6573 -0.4268,-9.5239 -0.1601,-0.4536 -2.2676,-0.0267 -2.2409,0.2934 -0.2935,0.0801 -0.1868,0.3735 -0.3468,0.5069 0.1333,0.0533 0.1333,0.1601 0.1333,0.2934 0.8271,0.1334 1.1205,-0.6402 1.7074,0.0534 0,2.2143 -0.16,3.1213 -0.0267,3.1213 -0.2134,1.3072 0.0534,9.8441 0.0534,11.3647 0,0.9871 0.5869,6.1359 0.3201,6.7228 -1.2805,0.8003 -4.135,1.4139 -4.5352,0.2134 -0.4268,-0.8537 0.1067,-2.8012 0.0534,-3.5214 -0.0534,-0.7203 3.1746,-19.6615 0.2134,-18.9412 -0.1868,-0.1334 -0.8804,-0.1601 -0.9337,0.0533 -0.8537,3.3347 -0.1067,7.5231 0.0267,11.0179 -0.0801,-0.0533 -0.1334,-0.08 -0.1868,0 -0.1601,-0.4268 -0.827,-2.4543 -1.0404,-2.5344 -0.2401,-1.2805 -1.6274,-8.9103 -1.0405,-10.3509 0.1868,-0.4535 0.3202,-0.667 0.5069,-0.8804 0.1601,-0.1867 0.7737,0.1067 1.0138,0.4002 0.5602,0.7203 5.1488,-1.5206 6.456,-1.2005 0.5869,0.1334 1.0137,0.3735 1.4939,0.6669 z m -1.2805,-0.08 c 0.3201,0.1601 1.3339,0.6136 0.5869,0.9337 -0.907,0.4002 -1.9208,-0.3201 -2.8812,0.0267 -0.4802,0.1601 -0.9871,0.4002 -1.3339,0 l 2.321,-0.9604 c 0.3468,-0.1067 1.0137,-0.1067 1.3072,0 z m 23.8499,2.8278 c 0.4268,0.8537 0.3468,1.1472 0.4001,2.0009 0.1868,3.9216 -3.8949,6.536 -3.9749,8.0566 l -0.1868,3.6816 c 0,0.2667 -0.2401,1.8407 -0.3201,1.0938 l -0.4269,-3.4415 c -0.08,-0.5335 -0.8803,3.8149 -0.9337,3.9483 -0.0267,0.0801 -0.1334,0.8537 -0.0267,1.654 0.2935,2.2677 0.7737,4.8554 0.4269,5.9492 -0.1868,0.6936 -3.3881,1.0671 -3.9216,0 -0.3468,-0.667 -0.1067,-5.3089 0,-6.1893 0.0533,-0.5869 0.2934,-2.1608 0.2934,-2.6144 v -1.7607 c 0,-1.2272 -0.0267,-2.7478 0.1067,-3.8149 0.0534,-0.4002 0.0267,-2.4544 0.0267,-2.9879 0,-0.9337 1.0404,-5.6824 1.654,-6.3493 0.2935,-0.3201 1.1472,-1.3072 2.0009,-1.4139 0.2134,0 1.4139,-0.1067 1.814,0.0533 0.747,0.2935 2.4811,0.9337 3.068,2.1342 z m -3.6549,-1.4406 c -0.08,0.2935 -0.5869,0.4269 -0.827,0.6403 l -0.3201,0.2935 c -0.5602,0.5068 -0.9604,2.481 -1.1471,2.9879 -0.1601,0.4268 -0.1601,1.3339 -0.667,1.3339 -0.3468,0 -0.9604,0.0533 -0.9337,-0.4536 0.0267,-0.2401 0.2668,-1.8941 0.4268,-2.2943 0.4002,-0.8536 1.4406,-1.9474 1.8675,-2.2142 0.4001,-0.2401 1.1738,-0.2935 1.6006,-0.2935 z m -30.5726,0.9071 c 0,0.0267 -0.0267,0.0267 0,0.0533 0.7203,0.2935 0.9604,0.9871 1.1471,1.4406 0.9071,2.1609 -0.2134,3.1213 -1.6006,4.4819 -0.3202,0.3201 -1.9208,0.747 -2.1343,1.2005 -0.1334,0.2934 -0.827,2.2676 -1.3872,1.9741 -0.4535,-0.2401 -1.1471,-1.9474 -0.9604,-2.4276 0.2934,-0.9337 4.2151,-4.5086 3.5215,-4.9621 -0.1334,-0.08 -1.7074,0.7203 -2.1343,1.0938 -0.2667,0.2134 -1.8407,1.6807 -2.0275,2.3743 -0.827,2.9879 -1.7874,6.9629 -0.8803,10.4043 0.2134,0.8004 0.4535,3.3347 1.0671,3.7082 1.6807,1.0405 4.3751,0.6937 4.6953,-1.654 0.2667,-2.0275 -0.3469,-3.8416 -0.6937,-5.8958 -0.0266,-0.2134 -0.0533,-0.2134 0.0267,-0.4001 0.1868,-0.4002 3.4681,-0.3202 3.6549,-0.1601 1.8941,1.6807 1.0137,5.9758 0.7736,6.6694 l -0.3735,1.0938 c -0.5335,1.5473 -1.8407,3.4681 -2.481,4.1084 -0.827,0.827 -4.0017,1.2538 -4.882,0.6136 -0.2401,-0.1868 -0.7737,-0.4002 -1.0405,-0.667 l -1.2538,-1.2538 c -0.2401,-0.2401 -0.8003,-1.9475 -0.9071,-2.2143 -0.1333,-0.3468 -0.6402,-2.3476 -0.6669,-2.8812 l -0.0267,-0.5335 c -0.16,-2.481 0,-3.9483 0.2935,-5.9491 0.0533,-0.3735 0.2401,-1.3873 0.2401,-1.6541 -0.0267,-0.6136 0.5335,-2.6677 0.6669,-3.4414 0.0267,-0.1601 1.1738,-2.9879 1.6807,-3.6282 0.3468,-0.4535 1.2005,-1.3605 1.654,-1.5473 1.414,-0.5869 2.8279,-0.4535 4.0284,0.0534 z m -1.0138,0.1601 c 0.3468,0.0533 0.4002,0.8003 0.1334,0.827 -2.1075,0.2934 -3.5748,1.7607 -3.8683,1.9741 -0.6135,0.4802 0.2935,-2.0808 1.3606,-2.5344 0.7203,-0.2934 1.5206,-0.4001 2.3743,-0.2667 z m 33.5873,1.8674 c 0.2401,0.5869 0.2134,2.321 -0.0267,3.2013 -0.1601,0.6136 -0.5336,1.0404 -0.827,1.574 -0.2134,0.4002 -0.5869,1.0671 -0.6936,1.3072 -0.1068,0.2668 -1.7074,3.2814 -1.7608,3.4414 -0.08,0.2401 -0.7203,3.068 -0.7736,2.9346 -0.5603,-1.0671 -0.5869,-3.4681 -0.5336,-4.6419 0.0801,-1.7874 0.1334,-3.6015 0.4802,-5.0421 0.1067,-0.5336 0.2668,-1.3339 0.5069,-1.8675 0.2401,-0.5335 1.3606,-1.9208 1.8941,-2.1075 0.667,-0.2401 1.574,0.747 1.7341,1.2005 z m 5.5489,-0.7203 c 0.6403,0.0267 1.3606,1.6273 1.3339,2.1075 -0.1067,1.8408 -0.4002,2.0275 -1.6807,2.9079 -0.3735,0.2134 -1.2805,0.3201 -1.6807,-0.1067 -1.0137,-1.0404 -0.9871,-2.9612 -0.3468,-4.0817 0.3201,-0.5869 1.5206,-0.8537 1.9208,-0.827 z m 0.1601,0.6669 c 0.5602,0.5069 1.0671,2.401 0.3468,2.5077 -0.4002,0.0801 -0.5069,-2.1609 -1.0404,-2.5343 -0.3468,-0.2668 0.4001,-0.1601 0.6936,0.0266 z m -37.3488,1.0938 c -0.2401,0.7203 -2.0809,3.148 -2.5877,2.9079 -0.0801,-0.0267 1.8941,-4.0017 2.0541,-3.975 0.5069,0.1334 0.4802,0.5336 0.5336,1.0671 z m 21.0487,1.7608 c -0.3201,0.6135 -0.4802,1.2271 -1.0137,1.734 -0.1068,0.6136 -2.5344,2.2409 -3.2547,2.3743 0.16,-0.0267 0.8537,-0.907 1.3072,-1.3605 1.3872,-1.4406 2.1609,-3.9483 2.5077,-5.0155 0.3201,0.1601 0.5335,1.9742 0.4535,2.2677 z m 25.3172,1.0671 c 1.4406,0.8003 1.5206,3.0412 1.654,3.4681 0.0533,0.1867 0.4268,-0.0267 0.4802,0.2401 0,0.0266 0.1334,0.16 0.08,0.5602 -0.2401,1.4406 0.2134,2.9612 0.0534,5.0688 0,0.2134 0.08,2.2142 0.1867,2.6944 0.08,0.3735 0.4002,3.0146 0.4002,3.1213 l -0.0267,2.1075 c -0.0267,0.5603 -2.6678,0.4802 -3.8949,0.1868 -0.9338,-0.2401 0.2134,-3.8416 0.1067,-4.6419 -0.1067,-0.9871 -0.4802,-2.4544 -0.9071,-3.4148 -0.6136,-1.2805 -0.8803,-1.8674 -1.654,-2.5877 -0.2668,-0.2401 -0.08,-0.1868 -0.2668,-0.1067 -0.4268,0.1867 -0.3201,1.1738 -0.3468,1.8407 -0.0533,1.2272 1.6007,9.1238 0.2935,9.0971 -0.4269,-0.0266 -1.4406,0.2135 -1.8941,0.0267 -0.5603,-0.2401 -0.7203,-2.9345 -0.747,-3.6548 0,-0.4802 0.3735,-4.9087 0.5069,-5.469 0.1333,-0.4001 0.6936,-2.0808 0.7736,-2.3476 0.2668,-1.0938 -0.6136,-1.1738 -1.1738,-2.0542 -0.2401,-0.4002 -0.667,-2.0809 -0.5069,-2.5077 0.2134,-0.5602 0.5336,-0.9871 0.9071,-1.3606 0.3734,-0.3468 2.3209,-1.1471 2.7211,-1.2271 1.3072,-0.2935 2.1609,0.1867 3.2547,0.9604 z m -57.6239,-0.1601 c 0.6136,0.1601 1.0137,0.4002 1.2005,0.8003 0.1867,0.3735 0.4268,1.1205 0.4002,1.2272 -0.1601,2.481 -1.7608,3.2547 -1.9475,5.4956 -0.2134,2.4544 0.1334,5.0154 0.5602,7.8433 -0.0267,0.8003 0.0534,2.6944 -1.2005,2.561 -0.8003,0.0267 -4.0817,0.667 -3.6815,-0.907 -0.6669,-0.8804 1.3606,-8.697 0.747,-8.9637 -0.1334,0.1867 -1.5207,0.4802 -1.8408,0.7469 -0.3201,0.2935 -1.2272,1.0671 -1.5206,1.6541 -0.2935,0.5869 -0.5069,2.561 -0.5603,3.5748 0.8271,0.6402 -0.5602,0.7203 -0.6135,0.8003 -0.2668,0.9871 2.0008,1.3339 2.0008,2.2943 -0.6936,0.8003 -0.8804,1.2005 -1.5206,0.7203 -1.4673,-0.7203 -1.9475,-2.481 -2.2143,-3.3347 -0.08,-0.9337 -0.0533,-4.4819 0.1601,-5.1221 0.4535,-1.2539 0.8003,-1.9208 0.907,-2.1343 0.1334,-0.2401 1.8408,-2.401 1.8408,-2.401 1.4939,-1.5206 1.9475,-3.0946 2.1075,-5.1221 0.0534,-0.747 4.5619,0.1067 5.1755,0.2668 z m 56.4234,0.08 c 0.3201,0.1601 1.4139,1.1205 1.6807,1.6274 0.1867,0.3201 0.4802,1.2538 0.4535,1.574 -0.0801,0.6135 -0.5869,0.4802 -1.0404,0.3468 -0.4536,-0.1067 -0.8537,-2.1876 -1.3073,-2.6945 -0.2401,-0.2401 -1.4406,-1.0938 -1.2005,-1.2005 0.6136,-0.2401 0.9071,0.0534 1.414,0.3468 z m -23.8766,0.827 c 0,-0.08 0.8537,10.3777 -1.2272,11.4448 -1.8407,0.9604 -4.6419,1.0671 -5.0954,0.3735 -1.0138,-1.4673 -0.7203,-3.6282 -0.1868,-5.2289 0.2135,-0.6669 1.9742,-3.1479 2.4277,-3.4414 0.4535,-0.2934 2.401,-1.6273 2.4277,-1.6273 0.5602,-0.5603 1.0404,-1.6007 1.4939,-2.2943 0.1601,-0.2401 0.1601,1.0137 0.1601,0.8003 z m -32.3601,-0.1067 c 1.3606,0.6136 -0.1867,3.2014 -0.8003,2.9079 -0.1067,-0.2401 -0.1067,-3.0946 0.08,-3.2013 0.2668,0.0533 0.3469,0.1067 0.7203,0.2934 z m 54.8494,0.2401 c 1.0405,0.5069 1.6807,1.9475 1.8408,2.7745 0.0533,0.2401 0.6403,2.1609 0.4535,2.0542 -0.4535,-0.2401 -0.4002,-1.0938 -0.7736,-1.3606 -1.8141,-1.2538 -2.0542,-0.7469 -2.6145,-0.3201 -0.2401,0.1601 -0.2934,0.6136 -0.6402,0.6669 -0.5869,0.0534 -0.8804,-2.2676 -0.4269,-2.9612 0.3468,-0.5335 0.6136,-0.8537 1.0671,-0.9871 0.4536,-0.16 0.6136,-0.1334 1.0938,0.1334 z m -58.4509,3.895 c -0.5869,0.1067 -1.1738,0.2134 -1.8674,0.6136 0,0 -1.6273,1.0937 -1.9208,1.0937 -0.2668,-0.1867 1.7341,-2.0275 1.7607,-2.3209 0.7203,-0.4535 1.3873,-3.2013 1.5473,-3.2814 0.1601,0.0801 0.6136,-0.16 0.587,0.1601 0.4535,0.3468 -0.1068,3.1213 -0.1068,3.7349 z m 51.9682,-3.3081 c 0.5069,0.2668 0.8004,0.6136 1.0938,1.0671 0.4269,0.4002 0.2668,1.9742 -0.08,2.8546 -0.1334,0.4001 -0.5336,3.2813 -0.5336,3.4147 0.1067,1.1205 0.7737,8.937 0.1067,8.937 -1.3338,0 -2.2942,0.0534 -3.0145,0.1068 -0.4002,0.0266 -1.0138,0.0533 -1.3606,-0.3202 -0.6669,-0.747 0.4535,-7.1496 0.6669,-8.03 l 0.2401,-1.0137 c 0.1068,-0.3735 0.3202,-1.9208 0.3735,-2.1342 0.1067,-0.3735 -0.0533,-4.0551 -0.5869,-4.3752 -0.16,-0.08 -0.2401,-0.2668 -0.0267,-0.4535 0.4536,-0.4269 2.6411,-0.3468 3.1213,-0.0534 z m 0.747,1.8675 c -0.2401,1.4406 0.1334,2.5344 -0.5869,4.0016 -0.4268,0.8804 -0.0534,-1.9208 -0.0534,-2.9612 0,-0.2934 0,-0.6403 0,-0.907 0.0267,-0.2401 0.4002,-0.9604 0.6403,-0.1334 z m -49.8073,2.0542 c -0.7203,-0.9871 0.8804,-1.6807 1.2805,-2.4544 0.4002,0.2668 -1.1471,2.4544 -1.2805,2.4544 z m 57.0637,-0.3469 c 0.3734,0.3735 0.4535,0.9871 0.6669,1.4673 0.1334,0.3202 -0.2134,4.8287 -0.3468,4.4018 -0.6403,-1.814 -1.6274,-3.2546 -2.3743,-4.7753 -0.1601,-0.2667 -0.0534,-0.7736 0.16,-1.0137 0.5069,-0.5869 1.1205,-0.8003 1.8942,-0.0801 z m -60.0516,0.3469 c 0.08,0.2667 0.1334,0.8536 -0.1067,1.2271 -0.2401,0.5869 -2.0008,0.8804 -2.5611,1.2005 -1.4139,0.827 -2.5343,2.5077 -2.8811,2.401 0.1867,-0.08 0.1867,-0.987 0.2934,-1.0137 0.5069,-1.4406 3.895,-3.8149 5.2555,-3.8149 z"
     style="fill:#d7b369;fill-rule:evenodd"
     id="path2"
     inkscape:connector-curvature="0" />
  <path
     d="m 36.029673,12.382323 h 1.8941 V 3.2052229 c 0,-1.3606 4.1618,-1.4406 4.1618,0.08 l 0.08,6.6694 9.8708,-6.9628 8.27,6.1358 1.6007,-0.987 0.08,-4.9354 c 0,-1.7074 4.3218,-1.5207 4.3752,0 l 0.1334,7.0162001 9.8974,-7.3630001 9.7907,6.8828 0.0801,-6.536 c -0.0267,-1.4139 4.0016,-1.2806 3.9749,-0.2134 l 0.1334,9.2571001 h 2.0009 l 0.16,-9.0437001 h 0.6937 c -0.0534,-4.00170007 -9.8975,-4.9354 -9.7374,1.1738 h 0.7203 l 0.0267,1.6807 -7.8433,-5.44230007 -7.9499,5.92250007 v -2.1609 h 0.907 c -0.1601,-5.6023 -10.0308,-4.90870007 -9.9508,-1.1738 h 0.7737 v 3.0679 l -8.2168,-5.65570007 -7.7899,5.57570007 v -1.8141 h 0.827 c -0.1867,-6.0825 -9.5773,-4.82870007 -9.684,-1.2272 l 0.667,0.0534 z"
     style="fill:#ffffff;fill-rule:evenodd;fill-opacity:1"
     id="path4"
     inkscape:connector-curvature="0" />
  <path
     d="m 52.609873,56.128023 1.0671,2.9879 3.1479,0.0801 -2.5077,1.9207 0.9071,3.0413 -2.6144,-1.8141 -2.6145,1.8141 0.9071,-3.0413 -2.5077,-1.9207 3.1746,-0.0801 z m 11.6581,0 1.0404,2.9879 3.1747,0.0801 -2.5077,1.9207 0.907,3.0413 -2.6144,-1.8141 -2.6144,1.8141 0.907,-3.0413 -2.5077,-1.9207 3.148,-0.0801 z m 11.6582,0 1.0404,2.9879 3.1747,0.0801 -2.5077,1.9207 0.8803,3.0413 -2.5877,-1.8141 -2.6144,1.8141 0.907,-3.0413 -2.5344,-1.9207 3.1747,-0.0801 z"
     style="fill:#d7b369;fill-rule:evenodd"
     id="path6"
     inkscape:connector-curvature="0" />
  <path
     d="m 84.919,59.714694 h 43.61674 v 0.7999 H 84.919 Z m -84.919,0 h 43.617 v 0.7999 H 0 Z"
     style="fill:#ffffff;fill-rule:evenodd;stroke-width:0.75973207;fill-opacity:1"
     id="path8"
     inkscape:connector-curvature="0"
     sodipodi:nodetypes="cccccccccc" />
  <path
     d="m 50.435473,48.306223 v 0.2134 h 0.1335 c 0.2934,0 0.2934,0.4802 0.2934,0.8005 v 1.8941 c 0,0.3201 0.0267,0.8003 -0.2934,0.8003 h -0.1335 v 0.2134 h 0.2135 c 0.1068,0 0.1868,-0.0266 0.2936,-0.0266 0.1066,-0.0267 0.2135,-0.0267 0.3201,-0.0267 0.1065,0 0.1868,0 0.2933,0.0267 0.1069,0 0.1869,0.0266 0.2934,0.0266 h 0.2937 v -0.2134 h -0.2134 c -0.2934,0 -0.3204,-0.4536 -0.3204,-0.8269 v -2.6144 h 0.4269 c 0.2668,0 0.667,-0.0802 0.667,0.4533 0,0.1335 -0.0266,0.267 -0.0533,0.2936 h 0.2401 c 0.08,-0.2667 0.1602,-0.6137 0.2401,-1.0139 -0.7735,0 -0.7469,0.0269 -1.1738,0.0269 -0.1335,0 -0.4802,0 -0.6403,0 -0.3734,0 -0.2668,-0.0269 -0.5868,-0.0269 z m 4.1618,1.921 c 0,0.987 0.5602,1.5738 1.0404,1.8406 0.2936,0.1601 0.6403,0.267 0.9606,0.267 1.0936,0 2.0007,-0.8005 2.0007,-2.001 0,-1.3606 -0.987,-2.1076 -1.974,-2.1076 -1.0939,0 -2.0277,0.747 -2.0277,2.001 z m 0.8272,-0.1068 c 0,-1.2805 0.6401,-1.6541 1.1202,-1.6541 0.6404,0 1.2274,0.7736 1.2274,1.9741 0,1.5474 -0.8804,1.6543 -1.0672,1.6543 -0.6403,0 -1.2804,-0.7739 -1.2804,-1.9743 z m 6.1089,-1.6008 v 2.5078 c 0,0.3736 0,0.9871 -0.3466,0.9871 h -0.1066 v 0.2134 h 0.2401 c 0.0799,0 0.1865,-0.0266 0.2667,-0.0266 0.1066,-0.0267 0.2135,-0.0267 0.32,-0.0267 0.1069,0 0.2135,0 0.3201,0.0267 0.1068,0 0.1868,0.0266 0.2936,0.0266 h 0.2135 v -0.2134 h -0.1335 c -0.3467,0 -0.3201,-0.6404 -0.3201,-1.0137 v -2.4812 h 0.4536 c 0.2401,0 0.6936,0 0.6936,0.4536 0,0.0266 0,0.1335 -0.0269,0.2667 h 0.2134 c 0.0803,-0.4802 0.1336,-0.5601 0.1602,-1.0137 -0.5068,0.0267 -1.2804,0.08 -1.8675,0.08 -0.2134,0 -0.7735,-0.0267 -0.987,-0.0267 -0.2134,-0.0266 -0.2667,-0.0266 -0.7469,-0.0533 -0.0267,0.3201 -0.0802,0.4536 -0.1602,1.0137 h 0.2401 c 0.1602,-0.5868 0.4536,-0.7203 0.8272,-0.7203 z m 3.7616,-0.2134 v 0.2134 h 0.0802 c 0.3467,0 0.3467,0.5604 0.3467,0.8805 v 1.8408 c 0,0.2667 0,0.7736 -0.32,0.7736 h -0.1069 v 0.2134 h 0.2135 c 0.0802,0 0.1601,0 0.2401,-0.0266 0.0535,0 0.1068,0 0.1601,0 0.0533,0 0.1066,0 0.1602,0 0.1332,0.0266 0.2401,0.0266 0.3733,0.0266 0.1601,0 0.7469,0.0533 0.8804,0.0533 0.2135,0 0.4536,0.0536 0.6137,-0.1332 0.1066,-0.1335 0.2135,-0.5871 0.2401,-0.8005 h -0.2134 c -0.1602,0.5604 -0.4536,0.6403 -0.667,0.667 -0.1335,0.0266 -0.2934,0.0266 -0.4536,0 -0.2134,-0.0267 -0.3736,-0.1066 -0.3736,-0.747 v -0.9603 h 0.5604 c 0.4,0 0.4,0.2667 0.4,0.4002 0,0.0267 0,0.0799 0,0.1332 h 0.2135 v -0.4002 c 0,-0.2401 0.0535,-0.6934 0.0802,-0.8269 h -0.2135 l -0.0533,0.2401 c -0.0269,0.2135 -0.2936,0.2135 -0.5071,0.2135 h -0.4802 v -1.4673 h 0.667 c 0.0802,0 0.4003,0 0.4003,0.3467 0,0.0533 0,0.1069 -0.0267,0.2934 h 0.2401 c 0.1066,-0.5601 0.1333,-0.4802 0.2135,-0.9337 -0.667,0.0269 -0.747,0.0269 -1.4406,0.0269 -0.2134,0 -0.4269,0 -0.6403,-0.0269 -0.1335,0 -0.2668,0 -0.4269,0 z m 4.2687,3.9217 h 0.2401 c 0.1332,0 0.2401,-0.0533 0.4802,-0.0533 0.1332,0 0.2667,0.0267 0.3733,0.0267 0.0799,0.0266 0.1602,0.0266 0.2135,0.0266 h 0.1068 v -0.2134 h -0.1335 c -0.1069,0 -0.32,-0.0533 -0.1601,-0.5069 l 0.587,-1.8674 c 0.0533,-0.2135 0.1066,-0.3467 0.1066,-0.5335 h 0.0533 c 0.0269,0.1332 0.0269,0.1868 0.0536,0.2401 l 0.6667,1.9207 c 0.0802,0.2668 0.2936,0.747 -0.1866,0.747 h -0.0802 v 0.2134 h 0.2937 c 0.1066,0 0.1865,-0.0266 0.2667,-0.0266 0.1066,-0.0267 0.2135,-0.0267 0.3467,-0.0267 0.1069,0 0.2135,0 0.347,0.0267 0.0799,0.0266 0.1598,0.0266 0.2401,0.0266 h 0.1865 v -0.2134 h -0.1332 c -0.2668,0 -0.4802,-0.5868 -0.6937,-1.1206 -0.4269,-1.2004 -0.667,-1.7872 -0.9071,-2.721 -0.1332,0.0267 -0.2933,0.0533 -0.4535,0.08 -0.1599,0.6936 -0.3733,1.254 -0.5601,1.7875 -0.3736,1.0403 -0.3736,0.987 -0.5069,1.3606 -0.0802,0.2132 -0.2667,0.6135 -0.587,0.6135 h -0.1599 z m 5.4955,-3.9217 v 0.2134 h 0.1066 c 0.3736,0 0.2934,0.5338 0.2934,0.8805 v 1.7339 c 0,0.3203 0.0269,0.8805 -0.32,0.8805 h -0.1066 v 0.2134 h 0.1066 c 0.1068,0 0.2134,0 0.32,0 0.0802,-0.0266 0.1868,-0.0533 0.2937,-0.0533 0.2934,0 0.0533,0.0267 0.5334,0.08 0.1602,0 0.3201,0.0266 0.4802,0.0266 1.3074,0 1.334,-0.9071 1.334,-1.2005 0,-0.5335 -0.3736,-1.0669 -1.4139,-1.0669 -0.1602,0 -0.3203,0 -0.4802,0.0266 v -0.6403 c 0,-0.4802 -0.0266,-0.8805 0.32,-0.8805 h 0.1066 v -0.2134 h -0.1865 c -0.0802,0 -0.1868,0 -0.2937,0.0269 -0.1065,0 -0.1865,0.0267 -0.2933,0.0267 -0.1066,0 -0.2135,-0.0267 -0.3201,-0.0267 -0.1068,-0.0269 -0.2134,-0.0269 -0.2934,-0.0269 z m 1.1472,1.921 c 0.0533,0 0.1066,0 0.1599,0 0.6137,0 0.9604,0.3467 0.9604,0.9604 0,0.5601 -0.3201,0.8802 -0.6937,0.8802 -0.3467,0 -0.4266,-0.2135 -0.4266,-0.5868 z"
     style="fill:#ffffff;fill-rule:evenodd;fill-opacity:1"
     id="path10"
     inkscape:connector-curvature="0" />
</svg>
